<svg viewBox="0 0 1080 1080" fill="none" xmlns="http://www.w3.org/2000/svg">      <defs>  <filter id="filter" x="-20%" y="-20%" width="140%" height="140%" filterUnits="objectBoundingBox" primitiveUnits="userSpaceOnUse" color-interpolation-filters="linearRGB">    <feMorphology operator="dilate" radius="20 20" in="SourceAlpha" result="morphology"/>    <feFlood flood-color="#ffffff" flood-opacity="1" result="flood"/>    <feComposite in="flood" in2="morphology" operator="in" result="composite"/>    <feMerge result="merge">          <feMergeNode in="composite" result="mergeNode"/>      <feMergeNode in="SourceGraphic" result="mergeNode1"/>      </feMerge>  </filter></defs>      <g id="notion-avatar" filter="url(#filter)">        <g id="notion-avatar-face" fill="#ffffff">      <!--?xml version="1.0" encoding="UTF-8"?-->    <title>Face/ 10</title>    <g id="Face/-10" stroke="none" stroke-width="1" fill-rule="evenodd" stroke-linecap="round" stroke-linejoin="round">        <path d="M532,379 C664.54834,379 772,486.45166 772,619 C772,751.54834 684.54834,899 592,899 C535.13263,899 351.668898,801.612202 313.752775,718.980575 L313.322946,718.989282 L312,719 C267.81722,719 232,683.18278 232,639 C232,599.134956 261.158843,566.080325 299.312086,560.00055 C325.599297,455.979213 419.809919,379 532,379 Z M295.858895,624.545187 L304.141105,655.454813" id="Path" stroke="#000000" stroke-width="24"/>    </g>    </g><g id="notion-avatar-nose">      <!--?xml version="1.0" encoding="UTF-8"?-->    <title>Nose/ 4</title>    <g id="Nose/-4" stroke="none" stroke-width="1" fill="none" fill-rule="evenodd" stroke-linecap="round" stroke-linejoin="round">        <path d="M636.843426,596.000252 C661.659687,637.453214 673.277876,666.226337 671.697992,682.319621 C670.118108,698.412905 655.181344,703.444023 626.8877,697.412976" id="Line" stroke="#000000" stroke-width="16" transform="translate(649.363766, 647.939652) rotate(1.032339) translate(-649.363766, -647.939652) "/>    </g>    </g><g id="notion-avatar-mouth">      <g id="Mouth/ 11"><path id="Path" fill-rule="evenodd" clip-rule="evenodd" d="M529 741C529 741 595 755 627 755C659 755 689 745.528 689 745.528C689 745.528 688 814 618 814C548 814 529 741 529 741Z" stroke="black" stroke-width="16" stroke-linecap="round" stroke-linejoin="round"/></g>    </g><g id="notion-avatar-eyes">      <!--?xml version="1.0" encoding="UTF-8"?-->    <title>Eyes/ 10</title>    <g id="Eyes/-10" stroke="none" stroke-width="1" fill="none" fill-rule="evenodd">        <g id="Group" transform="translate(520.000000, 512.000000)">            <g transform="translate(140.000000, 0.000000)">                <circle id="Oval" fill="#000000" cx="52" cy="28" r="24"/>                <path d="M1,16 C24.2727273,8 41.7272727,4 53.3636364,4 C65,4 79.5454545,8 97,16" id="Path" stroke="#000000" stroke-width="12" stroke-linecap="round" stroke-linejoin="round" transform="translate(49.000000, 10.000000) rotate(-4.000000) translate(-49.000000, -10.000000) "/>            </g>            <g>                <circle id="Oval" fill="#000000" transform="translate(46.000000, 28.000000) scale(-1, 1) translate(-46.000000, -28.000000) " cx="46" cy="28" r="24"/>                <path d="M1,16 C24.2727273,8 41.7272727,4 53.3636364,4 C65,4 79.5454545,8 97,16" id="Path" stroke="#000000" stroke-width="12" stroke-linecap="round" stroke-linejoin="round" transform="translate(49.000000, 10.000000) scale(-1, 1) rotate(-4.000000) translate(-49.000000, -10.000000) "/>            </g>        </g>    </g>    </g><g id="notion-avatar-eyebrows">      <!--?xml version="1.0" encoding="UTF-8"?-->    <title>Eyebrows/ 7</title>    <g id="Eyebrows/-7" stroke="none" stroke-width="1" fill="none" fill-rule="evenodd" stroke-linecap="round" stroke-linejoin="round">        <g id="Group" transform="translate(528.000000, 485.000000)" stroke="#000000" stroke-width="16">            <path d="M2,31 C13.6420073,23.1142473 23.8820073,17.5142473 32.72,14.2 C41.5579927,10.8857527 52.651326,8.48575274 66,7" id="Path" transform="translate(34.000000, 19.000000) rotate(12.000000) translate(-34.000000, -19.000000) "/>            <path d="M156,31 C167.642007,23.1142473 177.882007,17.5142473 186.72,14.2 C195.557993,10.8857527 206.651326,8.48575274 220,7" id="Path" transform="translate(188.000000, 19.000000) scale(-1, 1) rotate(12.000000) translate(-188.000000, -19.000000) "/>        </g>    </g>    </g><g id="notion-avatar-glasses">      <!--?xml version="1.0" encoding="UTF-8"?-->    <title>Glasses/ 0</title>    <g id="Glasses/-0" stroke="none" stroke-width="1" fill="none" fill-rule="evenodd"/>    </g><g id="notion-avatar-hair">      <g id="Hairstyle/ 42"><path id="Path" fill-rule="evenodd" clip-rule="evenodd" d="M524 224C538 226.667 547.667 230.667 553 236C558.333 241.333 562.667 250.667 566 264C566 264 582 243 584 238C586 233 586 210 586 210C586 210 594.605 216.518 596 227C597.395 237.482 595.814 237.139 594 249C604.667 254.333 615.121 249.013 621.788 243.013C628.455 237.013 632.788 229.68 634.788 221.013C641.017 224.834 645.683 229.168 648.788 234.013C651.893 238.859 655.153 246.896 658.567 258.125C665.419 255.141 669.949 252.207 672.159 249.323C674.368 246.439 675.967 241.372 676.956 234.121C678.787 238.211 679.853 241.411 680.154 243.722C680.455 246.033 678.212 271.784 677 281C682.536 279.104 686.703 278.897 692 275C699.333 269.605 705 261 705 261C705 261 705.85 275.428 705 285C704.15 294.572 700.141 315.734 700.141 315.734C700.141 315.734 731.918 310.132 734.788 297.013C736.702 288.268 734.247 279.588 723 275C737 275 745.471 277.269 752.108 284.529C762.064 295.42 757.788 309.013 750.788 318.013C746.121 324.013 740.788 328.347 734.788 331.013C749.943 334.967 759.563 333.71 763.646 327.244L763.788 327.013C767.788 320.347 776.121 312.68 788.788 304.013L788.449 305.898C783.014 336.438 782.359 355.186 786.486 362.142C786.486 362.142 792.952 358.462 795 356C800.369 349.546 801.669 345.497 801 352C799.575 365.855 787.832 385.38 780.102 390.538C775.593 393.546 768.502 395.556 758.828 396.567C757.847 398.597 756.809 400.567 755.717 402.478C758.235 408.042 764.663 410.216 775 409C788.262 407.439 798.262 400.106 805 387C805 399.667 799.333 411 788 421L786.985 421.89C770.483 436.271 757.694 442.784 734 438C729.85 437.162 726.25 436.092 723.2 434.79C715.672 438.987 707.271 442.25 698 444.579L695.953 445.088C686.406 447.438 672.404 450.562 656.009 453.474C654.179 458.121 652.083 462.012 648 464C641.181 467.32 630.383 465.75 615.605 459.288C613.208 459.546 610.797 459.789 608.377 460.014L606.958 460.875C595.06 468.16 589.408 473.201 590 476C591.225 481.788 600.892 485.788 619 488L617.263 488.404C601.757 491.961 589.67 493.494 581 493C572.009 492.488 562.158 489.54 551.447 484.154L549.835 484.692C538.795 488.416 532.85 491.185 532 493C529.814 497.668 528.147 502.335 527 507L495.482 484.154C487.649 483.633 478.821 480.915 469 476C459.179 471.085 452.549 466.069 449.112 460.95C431.497 465.117 421.104 470.185 417.932 476.153C413.174 485.105 409.432 486.597 421 492C428.712 495.602 439.905 495.602 454.579 492L453.239 493.008C438.585 503.948 423.678 504.443 412 503C400.322 501.557 388.999 489.606 388.999 489.606L389.407 491.845C391.379 502.861 392.365 511.159 392.365 516.739C392.365 528.233 383.924 572.725 367.044 650.214L366 655L328.117 564.825H287.146C271.78 507.747 268.106 468.653 276.123 447.542C283.951 426.927 303.884 411.158 335.92 400.236L334 397C326.231 383.602 339.512 379.865 343.843 357.79C348.173 335.715 357.788 343.013 372.788 323.013C372.788 323.013 393 295 433 275C473 255 504.651 265.527 521.788 264.013C538.926 262.5 543 272 543 253C543 240.333 536.667 230.667 524 224Z" fill="black" stroke="black" stroke-width="12" stroke-linecap="round" stroke-linejoin="round"/></g>    </g><g id="notion-avatar-accessories">      <!--?xml version="1.0" encoding="UTF-8"?-->    <title>Accessories/ 0</title>    <g id="Accessories/-0" stroke="none" stroke-width="1" fill="none" fill-rule="evenodd"/>    </g><g id="notion-avatar-details">      <!--?xml version="1.0" encoding="UTF-8"?-->    <title>Details/ 0</title>    <g id="Details/-0" stroke="none" stroke-width="1" fill="none" fill-rule="evenodd"/>    </g><g id="notion-avatar-beard">      <!--?xml version="1.0" encoding="UTF-8"?-->    <title>Beard/ 0</title>    <g id="Beard/-0" stroke="none" stroke-width="1" fill="none" fill-rule="evenodd"/>    </g>      </g>      </svg>